<?xml version="1.0" encoding="utf-8"?>
<!-- Generator: Adobe Illustrator 25.4.1, SVG Export Plug-In . SVG Version: 6.00 Build 0)  -->
<svg version="1.1" id="Layer_1" xmlns="http://www.w3.org/2000/svg" xmlns:xlink="http://www.w3.org/1999/xlink" x="0px" y="0px"
	 viewBox="0 0 100 100" style="enable-background:new 0 0 100 100;" xml:space="preserve">
<style type="text/css">
	.st0{fill:#33475B;}
	.st1{fill:#EC4B46;}
</style>
<desc>Created with Sketch.</desc>
<path class="st0" d="M4.3,57.6c0.2-0.7,0.3-1.5,0.5-2.2c2-7.8,8.5-13,16.6-13.1c3.8,0,7.7,0,11.5,0c0.4,0,0.7,0,1.2,0
	c0.2,4.5,1.9,8.3,5.1,11.5c-5.1,1.7-8.9,4.7-11.7,9.1c-2.7,4.5-3.1,9.4-2.8,14.6c-7.1-0.4-13.8-1.8-20.4-3.9
	C4.3,68.2,4.3,62.9,4.3,57.6z"/>
<path class="st0" d="M73.5,79.1c0,2.3,0,4.7,0,7c0,0.8-0.3,1.2-0.9,1.5c-3.4,1.5-7,2.5-10.7,3.1c-11,1.7-21.8,0.4-32.4-2.8
	c-1.7-0.5-1.7-0.5-1.7-2.3c0-4.3-0.1-8.6,0-12.8c0.2-8.9,7.2-16.2,16.1-16.6c4.7-0.2,9.4-0.2,14.1,0c6.7,0.3,13.1,5.8,14.8,12.3
	c0.7,2.7,0.7,5.5,0.7,8.2C73.5,77.5,73.5,78.3,73.5,79.1z"/>
<path class="st0" d="M76.6,77.8c0-2.2,0.1-4,0-5.8c-0.5-8.3-5.8-15.3-13.7-18c-0.2-0.1-0.4-0.2-0.8-0.3c3.1-3.2,4.9-7,5-11.4
	c0.3,0,0.4-0.1,0.6-0.1c3.7,0,7.5-0.1,11.2,0c8.8,0.2,16.1,7.3,16.5,16c0.2,4.8,0.1,9.6,0.1,14.4c0,0.3-0.3,0.7-0.5,0.7
	c-2.6,0.9-5.1,2-7.7,2.6C83.9,76.9,80.4,77.2,76.6,77.8z"/>
<path class="st1" d="M37.3,41.8c0-7.4,6-13.4,13.4-13.4c7.3,0,13.4,6,13.4,13.4c0,7.4-6,13.4-13.4,13.4
	C43.2,55.1,37.3,49.2,37.3,41.8z"/>
<path class="st1" d="M13.8,27.9c0-6.8,5.3-12.7,11.9-13.3c7.1-0.6,13.3,4,14.6,10.8c0.1,0.4,0.1,0.8,0.2,1.2c0.2,1.2,0,2.2-1.1,3.1
	c-2.6,2.3-4.3,5.3-4.9,8.8c-0.1,0.6-0.4,0.9-0.9,1.2C24.6,44.5,13.8,38.1,13.8,27.9z"/>
<path class="st1" d="M86.2,27.9c0,9.5-9.8,16.1-18.4,12.4c-0.3-0.1-0.7-0.5-0.7-0.8c-0.8-4.8-3.2-8.6-7.2-11.4
	c-0.5-0.4-0.4-0.8-0.4-1.2c0.6-6.9,6.4-12.3,13.4-12.3C80.3,14.6,86.2,20.5,86.2,27.9z"/>
</svg>
